{
  "accessors": [
    {
      "bufferView": 3,
      "componentType": 5126,
      "count": 1390,
      "max": [
        9.162300109863281,
        14.698917388916016,
        5.516223907470703
      ],
      "min": [
        -9.162302017211914,
        -0.2518460750579834,
        -7.806973457336426
      ],
      "type": "VEC3"
    },
    {
      "bufferView": 3,
      "byteOffset": 16680,
      "componentType": 5126,
      "count": 1390,
      "max": [
        0.9996547102928162,
        0.9997991919517517,
        0.9993900060653687
      ],
      "min": [
        -0.9989005327224731,
        -0.9999043345451355,
        -0.998919665813446
      ],
      "type": "VEC3"
    },
    {
      "bufferView": 2,
      "componentType": 5126,
      "count": 1390,
      "max": [
        0.99365234375,
        0.9921875
      ],
      "min": [
        -0.0,
        0.0
      ],
      "type": "VEC2"
    },
    {
      "bufferView": 1,
      "componentType": 5125,
      "count": 5574,
      "type": "SCALAR"
    },
    {
      "bufferView": 5,
      "componentType": 5126,
      "count": 37,
      "max": [
        100.0,
        3.8338537395763914e-14,
        1.5099583094979607e-07,
        0.0,
        0.0,
        100.0,
        0.0,
        0.0,
        0.42257675528526306,
        0.6149169206619263,
        100.0,
        0.0,
        10.204513549804688,
        3.286881685256958,
        1.5772663354873657,
        1.0
      ],
      "min": [
        -1.0,
        -0.5487325191497803,
        -0.7461191415786743,
        0.0,
        -0.8241541981697083,
        0.5663654804229736,
        -8.343300805790932e-07,
        0.0,
        -1.5099583094979607e-07,
        -4.164745917023538e-07,
        -1.0,
        0.0,
        -5.172345161437988,
        -11.652994155883789,
        -8.586851119995117,
        1.0
      ],
      "type": "MAT4"
    },
    {
      "bufferView": 0,
      "componentType": 5123,
      "count": 1390,
      "type": "VEC4"
    },
    {
      "bufferView": 4,
      "componentType": 5126,
      "count": 1390,
      "max": [
        1.0,
        0.5,
        0.0,
        0.0
      ],
      "min": [
        0.5,
        0.0,
        0.0,
        0.0
      ],
      "type": "VEC4"
    }
  ],
  "asset": {
    "extras": {
      "author": "depressed_goober (https://sketchfab.com/3beal)",
      "license": "CC-BY-4.0 (http://creativecommons.org/licenses/by/4.0/)",
      "source": "https://sketchfab.com/3d-models/amiguru-miku-plush-e2b1acb804f34288baf2ae24bce21cd2",
      "title": "Amiguru Miku Plush"
    },
    "generator": "Sketchfab-16.59.0",
    "version": "2.0"
  },
  "bufferViews": [
    {
      "buffer": 0,
      "byteLength": 11120,
      "byteStride": 8,
      "name": "shortBufferViews",
      "target": 34962
    },
    {
      "buffer": 0,
      "byteLength": 22296,
      "byteOffset": 11120,
      "name": "floatBufferViews",
      "target": 34963
    },
    {
      "buffer": 0,
      "byteLength": 11120,
      "byteOffset": 33416,
      "byteStride": 8,
      "name": "floatBufferViews",
      "target": 34962
    },
    {
      "buffer": 0,
      "byteLength": 33360,
      "byteOffset": 44536,
      "byteStride": 12,
      "name": "floatBufferViews",
      "target": 34962
    },
    {
      "buffer": 0,
      "byteLength": 22240,
      "byteOffset": 77896,
      "byteStride": 16,
      "name": "floatBufferViews",
      "target": 34962
    },
    {
      "buffer": 0,
      "byteLength": 2368,
      "byteOffset": 100136,
      "name": "floatBufferViews"
    }
  ],
  "buffers": [
    {
      "byteLength": 102504,
      "uri": "scene.bin"
    }
  ],
  "images": [
    {
      "uri": "textures/miku_m_baseColor.png"
    }
  ],
  "materials": [
    {
      "doubleSided": true,
      "name": "miku_m",
      "pbrMetallicRoughness": {
        "baseColorTexture": {
          "index": 0
        },
        "metallicFactor": 0.0,
        "roughnessFactor": 0.9649693801469345
      }
    }
  ],
  "meshes": [
    {
      "name": "miku01_miku_m_0",
      "primitives": [
        {
          "attributes": {
            "JOINTS_0": 5,
            "NORMAL": 1,
            "POSITION": 0,
            "TEXCOORD_0": 2,
            "WEIGHTS_0": 6
          },
          "indices": 3,
          "material": 0,
          "mode": 4
        }
      ]
    }
  ],
  "nodes": [
    {
      "children": [
        1
      ],
      "matrix": [
        1.0,
        0.0,
        0.0,
        0.0,
        0.0,
        2.220446049250313e-16,
        -1.0,
        0.0,
        0.0,
        1.0,
        2.220446049250313e-16,
        0.0,
        0.0,
        0.0,
        0.0,
        1.0
      ],
      "name": "Sketchfab_model"
    },
    {
      "children": [
        2
      ],
      "matrix": [
        0.009999999776482582,
        0.0,
        0.0,
        0.0,
        0.0,
        0.0,
        0.009999999776482582,
        0.0,
        0.0,
        -0.009999999776482582,
        0.0,
        0.0,
        0.0,
        0.0,
        0.0,
        1.0
      ],
      "name": "0ce3810f98ad44ae8ac14ebd29606e00.fbx"
    },
    {
      "children": [
        3
      ],
      "name": "RootNode"
    },
    {
      "children": [
        4
      ],
      "matrix": [
        100.0,
        0.0,
        0.0,
        0.0,
        0.0,
        -1.629206793918314e-05,
        -99.99999999999868,
        0.0,
        0.0,
        99.99999999999868,
        -1.629206793918314e-05,
        0.0,
        0.0,
        0.0,
        0.0,
        1.0
      ],
      "name": "Chara_0"
    },
    {
      "children": [
        5,
        43,
        42
      ],
      "name": "Object_4"
    },
    {
      "children": [
        6
      ],
      "name": "_rootJoint"
    },
    {
      "children": [
        7
      ],
      "name": "miku_01_01",
      "rotation": [
        5.338507591545749e-08,
        0.70710688829422,
        0.7071067094802856,
        5.338507946817117e-08
      ],
      "translation": [
        1.8450254616209777e-13,
        2.4438099899271037e-06,
        7.5
      ]
    },
    {
      "children": [
        8
      ],
      "name": "root_02",
      "rotation": [
        -1.0658141036401503e-12,
        -1.7205356741102976e-22,
        2.854501032246992e-19,
        1.0
      ],
      "translation": [
        -1.3552527156068805e-20,
        0.07500028610229492,
        2.837560373301906e-20
      ]
    },
    {
      "children": [
        9,
        13,
        17
      ],
      "name": "Hip_master_03",
      "rotation": [
        1.323489232520334e-22,
        -1.852884572118782e-22,
        -4.23516574601346e-22,
        1.0
      ],
      "scale": [
        1.0,
        0.9999998211860657,
        1.0
      ],
      "translation": [
        -1.6208676894870482e-17,
        -7.575003147125244,
        -9.91912606738976e-13
      ]
    },
    {
      "children": [
        10
      ],
      "name": "LegL01_04",
      "rotation": [
        7.940931987242893e-23,
        2.1316282072803006e-14,
        -8.470328462801045e-22,
        1.0
      ],
      "scale": [
        1.0,
        1.000000238418579,
        1.0
      ],
      "translation": [
        -2.1829216480255127,
        1.0950003862380981,
        -0.9000000357627869
      ]
    },
    {
      "children": [
        11
      ],
      "name": "LegL02_05",
      "rotation": [
        -1.8308733729099913e-07,
        -7.105429051666896e-15,
        2.1175812321760473e-22,
        1.0
      ],
      "scale": [
        1.0,
        0.9999999403953552,
        1.0
      ],
      "translation": [
        0.0377102792263031,
        -0.04500049352645874,
        -3.2549989223480225
      ]
    },
    {
      "children": [
        12
      ],
      "name": "LegL02_end_06",
      "rotation": [
        2.0166737613180885e-08,
        7.105427357601002e-15,
        1.1546316915002786e-14,
        1.0
      ],
      "translation": [
        8.786840055563516e-08,
        3.255531072616577,
        1.1483814432722284e-07
      ]
    },
    {
      "name": "LegL02_end_end_035",
      "rotation": [
        -1.3234889800848443e-23,
        -0.0,
        1.5777218104420236e-30,
        1.0
      ],
      "translation": [
        0.0,
        3.2555298805236816,
        8.881784197001252e-16
      ]
    },
    {
      "children": [
        14
      ],
      "name": "LegR01_07",
      "rotation": [
        7.940931987242893e-23,
        2.1316282072803006e-14,
        -8.470328462801045e-22,
        1.0
      ],
      "scale": [
        1.0,
        1.000000238418579,
        1.0
      ],
      "translation": [
        2.18291974067688,
        1.0950003862380981,
        -0.9000000357627869
      ]
    },
    {
      "children": [
        15
      ],
      "name": "LegR02_08",
      "rotation": [
        -3.661746461602888e-08,
        -7.105428204633949e-15,
        8.470328967672024e-22,
        1.0
      ],
      "scale": [
        1.0,
        0.9999999403953552,
        1.0
      ],
      "translation": [
        -0.03770986199378967,
        -0.04500049352645874,
        -3.255000352859497
      ]
    },
    {
      "children": [
        16
      ],
      "name": "LegR02_end_09",
      "rotation": [
        2.016675537674928e-08,
        7.105425663535107e-15,
        -1.1980003713227619e-14,
        1.0
      ],
      "translation": [
        8.786840055563516e-08,
        3.255531072616577,
        5.899279926779855e-07
      ]
    },
    {
      "name": "LegR02_end_end_031",
      "rotation": [
        5.293955920339377e-23,
        1.3234889800848443e-23,
        6.310887241768095e-30,
        1.0
      ],
      "translation": [
        4.440892098500626e-16,
        3.2555298805236816,
        -8.881784197001252e-16
      ]
    },
    {
      "children": [
        18,
        22,
        26,
        38
      ],
      "name": "torso_010",
      "rotation": [
        9.237054209628587e-14,
        1.4210854715202004e-14,
        -1.1858459645973071e-20,
        1.0
      ],
      "scale": [
        1.0,
        1.000000238418579,
        1.0
      ],
      "translation": [
        -5.583641188300348e-18,
        3.71699595451355,
        1.989519795653552e-13
      ]
    },
    {
      "children": [
        19
      ],
      "name": "armL01_011",
      "rotation": [
        -2.4178063995350385e-09,
        -2.117582368135751e-22,
        2.117582368135751e-21,
        1.0
      ],
      "translation": [
        -1.15532648563385,
        1.0029752254486084,
        -0.13707612454891205
      ]
    },
    {
      "children": [
        20
      ],
      "name": "armL02_012",
      "rotation": [
        1.5881867761018131e-22,
        -1.7205356741102976e-22,
        -1.2705494208814505e-21,
        1.0
      ],
      "translation": [
        0.028217339888215065,
        -2.2867085933685303,
        -2.0654478073120117
      ]
    },
    {
      "children": [
        21
      ],
      "name": "armL02_end_013",
      "rotation": [
        -9.256147848191176e-08,
        -3.4864269375207134e-21,
        -1.5095345153449784e-14,
        1.0
      ],
      "translation": [
        2.505620066983738e-08,
        3.081542730331421,
        -4.905298567337013e-08
      ]
    },
    {
      "name": "armL02_end_end_033",
      "rotation": [
        -2.6469779601696886e-23,
        2.6469779601696886e-23,
        9.466330862652142e-30,
        1.0
      ],
      "translation": [
        0.0,
        3.0815439224243164,
        0.0
      ]
    },
    {
      "children": [
        23
      ],
      "name": "armR01_014",
      "rotation": [
        -2.4178063995350385e-09,
        -2.117582368135751e-22,
        2.541098841762901e-21,
        1.0
      ],
      "translation": [
        1.1553270816802979,
        1.0029799938201904,
        -0.13707613945007324
      ]
    },
    {
      "children": [
        24
      ],
      "name": "armR02_015",
      "rotation": [
        -6.215550636841632e-15,
        -1.9342399681931965e-08,
        1.1786781328737561e-08,
        1.0
      ],
      "translation": [
        -0.02821812592446804,
        -2.286720037460327,
        -2.0654489994049072
      ]
    },
    {
      "children": [
        25
      ],
      "name": "armR02_end_016",
      "rotation": [
        1.4610137988313454e-08,
        6.794057093278255e-16,
        4.441208290018039e-09,
        1.0
      ],
      "scale": [
        1.0,
        0.9999999403953552,
        1.0
      ],
      "translation": [
        6.985546008309029e-08,
        3.081552028656006,
        4.380387963465182e-08
      ]
    },
    {
      "name": "armR02_end_end_030",
      "rotation": [
        -2.6469779601696886e-23,
        1.3234889800848443e-23,
        -3.030917193829479e-24,
        1.0
      ],
      "translation": [
        -2.220446049250313e-16,
        3.081552505493164,
        -4.440892098500626e-16
      ]
    },
    {
      "children": [
        27
      ],
      "name": "Neck_017",
      "rotation": [
        -5.684341886080802e-14,
        -1.4210854715202004e-14,
        1.2705494208814505e-21,
        1.0
      ],
      "translation": [
        -6.776263578034403e-21,
        1.7130053043365479,
        2.0752307207730358e-20
      ]
    },
    {
      "children": [
        28,
        33
      ],
      "name": "Head_018",
      "rotation": [
        9.911786946759094e-10,
        7.105427357601002e-15,
        1.1722088957052262e-17,
        1.0
      ],
      "translation": [
        -7.316982306507236e-15,
        3.6875410079956055,
        -0.21000000834465027
      ]
    },
    {
      "children": [
        29
      ],
      "name": "tailL01_019",
      "rotation": [
        1.852884572118782e-22,
        1.4210854715202004e-14,
        -2.633107345841924e-36,
        1.0
      ],
      "translation": [
        -5.172351837158203,
        2.5354549884796143,
        4.829230785369873
      ]
    },
    {
      "children": [
        30
      ],
      "name": "tailL02_020",
      "rotation": [
        -0.19033847749233246,
        0.36175283789634705,
        -0.4249570369720459,
        0.8076618313789368
      ],
      "scale": [
        0.9999998211860657,
        0.9999995231628418,
        1.000000238418579
      ],
      "translation": [
        -1.4875479936599731,
        -5.1044745445251465,
        0.8143991827964783
      ]
    },
    {
      "children": [
        31
      ],
      "name": "tailL03_021",
      "rotation": [
        0.19033844769001007,
        -0.3617526590824127,
        0.42495718598365784,
        0.8076620101928711
      ],
      "scale": [
        0.9999999403953552,
        1.0000003576278687,
        0.9999998807907104
      ],
      "translation": [
        6.374790191650391,
        -1.5700994729995728,
        1.1673331260681152
      ]
    },
    {
      "children": [
        32
      ],
      "name": "tailL03_end_022",
      "rotation": [
        2.6126540930704323e-09,
        -3.989501173862209e-09,
        3.0869695688551246e-10,
        1.0
      ],
      "translation": [
        3.004810764650756e-07,
        6.668267726898193,
        -9.598704764357535e-08
      ]
    },
    {
      "name": "tailL03_end_end_034",
      "rotation": [
        5.293955920339377e-23,
        -1.6543612251060553e-24,
        3.1433365781411677e-24,
        1.0
      ],
      "translation": [
        0.0,
        6.668266296386719,
        0.0
      ]
    },
    {
      "children": [
        34
      ],
      "name": "tailR01_023",
      "rotation": [
        4.4325446424409165e-08,
        7.105427357601002e-15,
        4.235164736271502e-22,
        1.0
      ],
      "translation": [
        5.17234468460083,
        2.535449266433716,
        4.829226016998291
      ]
    },
    {
      "children": [
        35
      ],
      "name": "tailR02_00",
      "rotation": [
        -0.19033844769001007,
        0.3617529273033142,
        -0.4249570071697235,
        0.8076618313789368
      ],
      "scale": [
        0.9999997615814209,
        0.9999995231628418,
        1.0000003576278687
      ],
      "translation": [
        1.4875487089157104,
        -5.10447359085083,
        0.8144099712371826
      ]
    },
    {
      "children": [
        36
      ],
      "name": "tailR03_024",
      "rotation": [
        0.19033855199813843,
        -0.3617528975009918,
        0.42495715618133545,
        0.8076618909835815
      ],
      "scale": [
        0.9999999403953552,
        1.0000003576278687,
        1.000000238418579
      ],
      "translation": [
        4.554715633392334,
        -4.21859073638916,
        -2.4338746070861816
      ]
    },
    {
      "children": [
        37
      ],
      "name": "tailR03_end_025",
      "rotation": [
        -3.230368861295574e-08,
        -1.6863594964888762e-08,
        -6.112861328233521e-09,
        1.0
      ],
      "translation": [
        5.297583811625373e-07,
        6.668261528015137,
        5.931200348641141e-07
      ]
    },
    {
      "name": "tailR03_end_end_029",
      "rotation": [
        -0.0,
        -5.293955920339377e-23,
        -1.9386288300242574e-24,
        1.0
      ],
      "translation": [
        0.0,
        6.668261528015137,
        0.0
      ]
    },
    {
      "children": [
        39
      ],
      "name": "Necktie01_026",
      "rotation": [
        -3.5943287457484985e-08,
        -1.4210854715202004e-14,
        5.873012207037887e-15,
        1.0
      ],
      "scale": [
        1.0,
        0.9999999403953552,
        1.0
      ],
      "translation": [
        9.659373995107856e-15,
        0.16800527274608612,
        -1.5772664546966553
      ]
    },
    {
      "children": [
        40
      ],
      "name": "Necktie02_027",
      "rotation": [
        1.0782986237245495e-07,
        -7.105427357601002e-15,
        -2.1423873044796194e-15,
        1.0
      ],
      "translation": [
        -1.548433012669645e-13,
        -2.844872236251831,
        -1.7048465013504028
      ]
    },
    {
      "children": [
        41
      ],
      "name": "Necktie02_end_028",
      "rotation": [
        -5.509086520305573e-08,
        1.4210853021136109e-14,
        -1.427790076110897e-15,
        1.0
      ],
      "translation": [
        7.777171918618708e-15,
        3.316594123840332,
        -4.341116621731089e-08
      ]
    },
    {
      "name": "Necktie02_end_end_032",
      "rotation": [
        0.0,
        -2.6469779601696886e-23,
        0.0,
        1.0
      ],
      "translation": [
        -1.0587911840678754e-22,
        3.316594123840332,
        0.0
      ]
    },
    {
      "matrix": [
        100.00000000000227,
        -4.168147597018221e-20,
        -1.7053090202152988e-13,
        0.0,
        -1.7053090202154624e-13,
        1.471617626501118e-12,
        -100.00000000001187,
        0.0,
        4.168147847974807e-20,
        100.00000000000958,
        1.4716176265010844e-12,
        0.0,
        -2.592462495883585e-18,
        0.0,
        1.4260932712506502e-11,
        1.0
      ],
      "name": "Object_42"
    },
    {
      "mesh": 0,
      "name": "Object_43",
      "skin": 0
    }
  ],
  "samplers": [
    {
      "magFilter": 9729,
      "minFilter": 9987,
      "wrapS": 10497,
      "wrapT": 10497
    }
  ],
  "scene": 0,
  "scenes": [
    {
      "name": "Sketchfab_Scene",
      "nodes": [
        0
      ]
    }
  ],
  "skins": [
    {
      "inverseBindMatrices": 4,
      "joints": [
        5,
        6,
        7,
        8,
        9,
        10,
        11,
        12,
        13,
        14,
        15,
        16,
        17,
        18,
        19,
        20,
        21,
        22,
        23,
        24,
        25,
        26,
        27,
        28,
        29,
        30,
        31,
        32,
        33,
        34,
        35,
        36,
        37,
        38,
        39,
        40,
        41
      ],
      "skeleton": 5
    }
  ],
  "textures": [
    {
      "sampler": 0,
      "source": 0
    }
  ]
}
